<svg viewBox="0 0 531 100" fill="none" xmlns="http://www.w3.org/2000/svg" role="img" aria-label="TYBA">
  <defs>
    <clipPath id="tyba-wordmark-clip-dark">
      <rect x="0" y="0" width="531" height="100" />
    </clipPath>
  </defs>
  <g clip-path="url(#tyba-wordmark-clip-dark)" stroke="#f5f5f6" stroke-width="14.5" stroke-linecap="butt" stroke-linejoin="miter">
    <path d="M0 7.25 H101.4 M50 0 V100" />
    <path d="M138.4 0 L185.5 58 L234.1 0 M185.5 58 V100" />
    <path d="M280.7 0 V100 M280.7 7.25 H351.2 A15 15 0 0 1 366.2 22.25 V31.4 A15 15 0 0 1 351.2 46.4 H280.7 M280.7 46.4 H354.1 A15 15 0 0 1 369.1 61.4 V77.75 A15 15 0 0 1 354.1 92.75 H280.7" />
    <path d="M413.3 100 L467.1 0 L518.7 100" />
  </g>
</svg>
